C:/Program Files/Krita (x64)/bin/ffmpeg.exe -hide_banner -y -y -r 24 -start_number 0 -start_number_range 1 -i C:/Users/arrob/Documents/website/frame%04d.png -i C:/Users/arrob/Documents/website/KritaTempPalettegen_%06d.png -lavfi [0:v][1:v]paletteuse=dither=sierra2_4a:diff_mode=none -f gif -loop 0 -gifflags +transdiff C:/Users/arrob/Documents/website/oranje_logo3.gif
=====================================================
Input #0, image2, from 'C:/Users/arrob/Documents/website/frame%04d.png':
  Duration: 00:00:04.04, start: 0.000000, bitrate: N/A
  Stream #0:0: Video: png, rgba(pc), 669x373 [SAR 2834:2834 DAR 669:373], 25 fps, 25 tbr, 25 tbn, 25 tbc
Input #1, image2, from 'C:/Users/arrob/Documents/website/KritaTempPalettegen_%06d.png':
  Duration: 00:00:00.04, start: 0.000000, bitrate: N/A
  Stream #1:0: Video: png, rgba(pc), 16x16 [SAR 1:1 DAR 1:1], 25 fps, 25 tbr, 25 tbn, 25 tbc
Stream mapping:
  Stream #0:0 (png) -> paletteuse:default
  Stream #1:0 (png) -> paletteuse:palette
  paletteuse -> Stream #0:0 (gif)
Press [q] to stop, [?] for help
[image2 @ 00000218b9c293c0] Thread message queue blocking; consider raising the thread_queue_size option (current value: 8)
Output #0, gif, to 'C:/Users/arrob/Documents/website/oranje_logo3.gif':
  Metadata:
    encoder         : Lavf58.76.100
  Stream #0:0: Video: gif, pal8(pc, gbr/unknown/unknown, progressive), 669x373 [SAR 1:1 DAR 669:373], q=2-31, 200 kb/s, 24 fps, 100 tbn (default)
    Metadata:
      encoder         : Lavc58.134.100 gif
frame=    1 fps=0.0 q=-0.0 size=       0kB time=00:00:00.01 bitrate=   0.0kbits/s speed=0.246x    frame=   21 fps=0.0 q=-0.0 size=      89kB time=00:00:00.84 bitrate= 868.2kbits/s speed=1.53x    frame=   40 fps= 38 q=-0.0 size=     256kB time=00:00:01.64 bitrate=1278.8kbits/s speed=1.56x    frame=   62 fps= 40 q=-0.0 size=     512kB time=00:00:02.55 bitrate=1644.8kbits/s speed=1.63x    frame=   81 fps= 39 q=-0.0 size=     512kB time=00:00:03.34 bitrate=1255.8kbits/s speed=1.62x    frame=  101 fps= 39 q=-0.0 size=     768kB time=00:00:04.18 bitrate=1505.1kbits/s speed=1.62x    frame=  101 fps= 39 q=-0.0 Lsize=    1014kB time=00:00:04.18 bitrate=1987.5kbits/s speed=1.62x    
video:1014kB audio:0kB subtitle:0kB other streams:0kB global headers:0kB muxing overhead: 0.001926%
